<svg xmlns="http://www.w3.org/2000/svg" width="150" height="150" fill="none" viewBox="0 0 150 150" role="img" aria-labelledby="title description">
  <title id="title">Lists</title>
  <desc id="description">The Lists logo with a notebook and pencil.</desc>
  <rect width="150" height="150" rx="28" fill="#fbf3df"/>
  <g transform="translate(22 20) scale(2.04)">
    <path fill="#fffaf0" stroke="#5b3a29" stroke-linejoin="round" stroke-width="3" d="M13 8h25a4 4 0 0 1 4 4v30a4 4 0 0 1-4 4H13a4 4 0 0 1-4-4V12a4 4 0 0 1 4-4Z"/>
    <path stroke="#5b3a29" stroke-linecap="round" stroke-linejoin="round" stroke-width="3" d="M17 5v8M25 5v8M33 5v8"/>
    <path stroke="#5b3a29" stroke-linecap="round" stroke-width="3" d="M16 20h17M16 27h14M16 34h10"/>
    <path fill="#d8894a" stroke="#5b3a29" stroke-linejoin="round" stroke-width="3" d="M30 38.5 41 27.5l5.5 5.5-11 11H30v-5.5Z"/>
    <path fill="#ef8091" stroke="#5b3a29" stroke-linejoin="round" stroke-width="3" d="m41 27.5 2.5-2.5a2.5 2.5 0 0 1 3.5 0l2 2a2.5 2.5 0 0 1 0 3.5L46.5 33"/>
    <path fill="#fffaf0" stroke="#5b3a29" stroke-linejoin="round" stroke-width="3" d="M30 38.5V44h5.5"/>
  </g>
</svg>
